<svg width="24" height="31" viewBox="0 0 24 31" fill="none" xmlns="http://www.w3.org/2000/svg">
<g clip-path="url(#clip0_25886_6508)">
<path d="M23.3333 12.56C23.3333 12.3733 23.3333 12.1866 23.3333 12.0133C23.3333 5.57331 18.1067 0.333313 11.6667 0.333313C5.22667 0.333313 0 5.57331 0 12.0133V12.4L5.01333 20.88L4.98667 20.9466C4.73333 21.6666 4.61333 22.4266 4.61333 23.2133C4.61333 27.0933 7.77333 30.2666 11.6667 30.2666C15.56 30.2666 18.72 27.0933 18.72 23.2133C18.72 22.44 18.6 21.68 18.3467 20.96L18.32 20.8933L18.36 20.8266L23.3333 12.56ZM3.04 9.49331C4.14667 5.67998 7.69333 3.01331 11.6667 3.01331C15.64 3.01331 19.2 5.67998 20.2933 9.47998L20.3733 9.77331L20.0933 9.66665C19.2133 9.35998 18.2 9.19998 17.1733 9.19998C15.0267 9.19998 13.0533 9.90665 11.7733 11.1333L11.6667 11.24L11.56 11.1333C10.28 9.90665 8.30667 9.19998 6.16 9.19998C5.10667 9.19998 4.13333 9.37331 3.24 9.69331L2.96 9.78665L3.04 9.49331ZM6.56 18.32L3.08 12.7066L3.21333 12.6266C3.98667 12.16 5.06667 11.88 6.16 11.88C8.54667 11.88 10.3333 13.1333 10.3333 14.2666V16.2666L10.2 16.2933C8.86667 16.5866 7.65333 17.24 6.69333 18.1733L6.56 18.32ZM11.6667 27.5866C9.25333 27.5866 7.29333 25.6266 7.29333 23.2133C7.29333 22.84 7.33333 22.4666 7.44 22.0533L7.69333 21.3466C8.44 19.8133 9.98667 18.8266 11.6667 18.8266C13.3467 18.8266 14.9067 19.8266 15.64 21.3733L15.8667 21.9733C15.9867 22.4133 16.04 22.8133 16.04 23.2133C16.04 25.6266 14.08 27.5866 11.6667 27.5866ZM16.76 18.3333L16.6133 18.1866C15.68 17.2533 14.44 16.5866 13.1333 16.3066L13 16.28V14.2666C13 13.1333 14.7867 11.88 17.1733 11.88C18.2667 11.88 19.3467 12.16 20.12 12.6266L20.2533 12.7066L16.76 18.3333Z" fill="white"/>
<path d="M14.0802 22.2667L12.6002 20.8C12.3602 20.5467 12.0269 20.4133 11.6669 20.4133C11.3069 20.4133 10.9735 20.5467 10.7335 20.8L9.25354 22.2667C8.74687 22.7867 8.74687 23.6267 9.25354 24.1467L10.7469 25.64C11.2535 26.1067 12.1069 26.1067 12.6002 25.6133L14.0802 24.1467C14.5869 23.6267 14.5869 22.7867 14.0802 22.2667ZM11.6669 24.88L9.98687 23.2133L11.6535 21.5333L13.3469 23.2L11.6669 24.88Z" fill="white"/>
</g>
<defs>
<clipPath id="clip0_25886_6508">
<rect width="23.3333" height="29.9333" fill="white" transform="translate(0 0.333313)"/>
</clipPath>
</defs>
</svg>
