<svg width="16" height="16" viewBox="0 0 16 16" fill="none" xmlns="http://www.w3.org/2000/svg">
<path fill-rule="evenodd" clip-rule="evenodd" d="M12.667 7.33331H4.75699L7.17899 4.42665C7.41499 4.14398 7.37633 3.72331 7.09366 3.48798C6.81033 3.25198 6.39033 3.29065 6.15499 3.57331L2.82166 7.57331C2.79566 7.60465 2.78233 7.64131 2.76299 7.67598C2.74699 7.70398 2.72766 7.72798 2.71566 7.75865C2.68566 7.83531 2.66766 7.91598 2.66766 7.99731C2.66766 7.99798 2.66699 7.99931 2.66699 7.99998C2.66699 8.00065 2.66766 8.00198 2.66766 8.00265C2.66766 8.08398 2.68566 8.16465 2.71566 8.24131C2.72766 8.27198 2.74699 8.29598 2.76299 8.32398C2.78233 8.35865 2.79566 8.39531 2.82166 8.42665L6.15499 12.4266C6.28699 12.5846 6.47633 12.6666 6.66699 12.6666C6.81766 12.6666 6.96899 12.616 7.09366 12.512C7.37633 12.2766 7.41499 11.856 7.17899 11.5733L4.75699 8.66665H12.667C13.035 8.66665 13.3337 8.36798 13.3337 7.99998C13.3337 7.63198 13.035 7.33331 12.667 7.33331Z" fill="white"/>
<mask id="mask0_23028_24657" style="mask-type:luminance" maskUnits="userSpaceOnUse" x="2" y="3" width="12" height="10">
<path fill-rule="evenodd" clip-rule="evenodd" d="M12.667 7.33331H4.75699L7.17899 4.42665C7.41499 4.14398 7.37633 3.72331 7.09366 3.48798C6.81033 3.25198 6.39033 3.29065 6.15499 3.57331L2.82166 7.57331C2.79566 7.60465 2.78233 7.64131 2.76299 7.67598C2.74699 7.70398 2.72766 7.72798 2.71566 7.75865C2.68566 7.83531 2.66766 7.91598 2.66766 7.99731C2.66766 7.99798 2.66699 7.99931 2.66699 7.99998C2.66699 8.00065 2.66766 8.00198 2.66766 8.00265C2.66766 8.08398 2.68566 8.16465 2.71566 8.24131C2.72766 8.27198 2.74699 8.29598 2.76299 8.32398C2.78233 8.35865 2.79566 8.39531 2.82166 8.42665L6.15499 12.4266C6.28699 12.5846 6.47633 12.6666 6.66699 12.6666C6.81766 12.6666 6.96899 12.616 7.09366 12.512C7.37633 12.2766 7.41499 11.856 7.17899 11.5733L4.75699 8.66665H12.667C13.035 8.66665 13.3337 8.36798 13.3337 7.99998C13.3337 7.63198 13.035 7.33331 12.667 7.33331Z" fill="white"/>
</mask>
<g mask="url(#mask0_23028_24657)">
<rect width="16" height="16" fill="white"/>
</g>
</svg>
