<svg width="32" height="32" viewBox="0 0 32 32" fill="none" xmlns="http://www.w3.org/2000/svg">
<path fill-rule="evenodd" clip-rule="evenodd" d="M25.0242 17.8133C24.5522 17.248 23.7122 17.1706 23.1468 17.6426L17.3335 22.4866V6.66665C17.3335 5.93065 16.7362 5.33331 16.0002 5.33331C15.2642 5.33331 14.6668 5.93065 14.6668 6.66665V22.4866L8.85348 17.6426C8.28682 17.1706 7.44682 17.248 6.97615 17.8133C6.50415 18.3786 6.58015 19.22 7.14682 19.6906L15.1468 26.3573C15.2095 26.4106 15.2842 26.436 15.3535 26.476C15.4082 26.508 15.4562 26.5453 15.5162 26.5693C15.6722 26.6306 15.8348 26.6666 16.0002 26.6666C16.1655 26.6666 16.3282 26.6306 16.4842 26.5693C16.5442 26.5453 16.5922 26.508 16.6468 26.476C16.7162 26.436 16.7908 26.4106 16.8535 26.3573L24.8535 19.6906C25.4188 19.22 25.4962 18.3786 25.0242 17.8133Z" fill="#FFECE3"/>
<mask id="mask0_22915_24577" style="mask-type:luminance" maskUnits="userSpaceOnUse" x="6" y="5" width="20" height="22">
<path fill-rule="evenodd" clip-rule="evenodd" d="M25.0242 17.8133C24.5522 17.248 23.7122 17.1706 23.1468 17.6426L17.3335 22.4866V6.66665C17.3335 5.93065 16.7362 5.33331 16.0002 5.33331C15.2642 5.33331 14.6668 5.93065 14.6668 6.66665V22.4866L8.85348 17.6426C8.28682 17.1706 7.44682 17.248 6.97615 17.8133C6.50415 18.3786 6.58015 19.22 7.14682 19.6906L15.1468 26.3573C15.2095 26.4106 15.2842 26.436 15.3535 26.476C15.4082 26.508 15.4562 26.5453 15.5162 26.5693C15.6722 26.6306 15.8348 26.6666 16.0002 26.6666C16.1655 26.6666 16.3282 26.6306 16.4842 26.5693C16.5442 26.5453 16.5922 26.508 16.6468 26.476C16.7162 26.436 16.7908 26.4106 16.8535 26.3573L24.8535 19.6906C25.4188 19.22 25.4962 18.3786 25.0242 17.8133Z" fill="white"/>
</mask>
<g mask="url(#mask0_22915_24577)">
<rect width="32" height="32" fill="#FFECE3"/>
</g>
</svg>
