<svg width="24" height="24" viewBox="0 0 24 24" fill="none" xmlns="http://www.w3.org/2000/svg">
<g clip-path="url(#clip0_22523_620004)">
<path fill-rule="evenodd" clip-rule="evenodd" d="M10.4521 1.31157C11.2522 0.334213 12.7469 0.33421 13.5471 1.31157L14.5389 2.52302L16.0036 1.96979C17.1853 1.52347 18.4796 2.27078 18.6839 3.5173L18.9372 5.06237L20.4823 5.3156C21.7288 5.5199 22.4761 6.81429 22.0298 7.99596L21.4765 9.46064L22.688 10.4525C23.6653 11.2527 23.6653 12.7473 22.688 13.5475L21.4765 14.5394L22.0298 16.004C22.4761 17.1857 21.7288 18.4801 20.4823 18.6844L18.9372 18.9376L18.684 20.4827C18.4796 21.7292 17.1853 22.4765 16.0036 22.0302L14.5389 21.477L13.5471 22.6884C12.7469 23.6658 11.2522 23.6658 10.4521 22.6884L9.46022 21.477L7.99553 22.0302C6.81386 22.4765 5.51948 21.7292 5.31518 20.4827L5.06194 18.9376L3.51687 18.6844C2.27035 18.4801 1.52305 17.1857 1.96937 16.004L2.5226 14.5394L1.31115 13.5475C0.333785 12.7473 0.333781 11.2527 1.31115 10.4525L2.5226 9.46064L1.96937 7.99596C1.52304 6.81429 2.27036 5.5199 3.51688 5.3156L5.06194 5.06237L5.31518 3.5173C5.51948 2.27078 6.81387 1.52347 7.99553 1.96979L9.46022 2.52302L10.4521 1.31157ZM11.2071 16.2071L18.2071 9.2071L16.7929 7.79289L10.5 14.0858L7.20711 10.7929L5.79289 12.2071L9.79289 16.2071C9.98043 16.3947 10.2348 16.5 10.5 16.5C10.7652 16.5 11.0196 16.3947 11.2071 16.2071Z" fill="#00BA50"/>
</g>
<defs>
<clipPath id="clip0_22523_620004">
<rect width="24" height="24" fill="white"/>
</clipPath>
</defs>
</svg>
