<svg width="80" height="53" viewBox="0 0 80 53" fill="none" xmlns="http://www.w3.org/2000/svg">
<rect width="9.98554" height="9.99488" transform="matrix(-4.37114e-08 1 1 4.37114e-08 46.0054 10)" fill="#9A9A9A"/>
<rect width="9.98554" height="20.9691" transform="matrix(-4.37114e-08 1 1 4.37114e-08 35.0293 32.0168)" fill="#9A9A9A"/>
<rect width="9.98554" height="9.96607" transform="matrix(-4.37114e-08 1 1 4.37114e-08 24 32.0168)" fill="#9A9A9A"/>
<path d="M44.9677 20.3094L44.9677 10.4678L24.4307 30.9856L34.3103 30.9856L44.9677 20.3094Z" fill="#9A9A9A"/>
<path d="M55.5401 21.0264L45.7468 21.0264L35.752 30.9832L44.9979 30.9832L55.5401 21.0264Z" fill="#9A9A9A"/>
<rect x="43" y="31" width="29" height="12" rx="6" fill="#4A4A4A"/>
<path d="M48.68 39.34H50.06C50.32 39.34 50.5633 39.3133 50.79 39.26C51.0167 39.2067 51.2133 39.1267 51.38 39.02C51.5467 38.9067 51.6767 38.7667 51.77 38.6C51.87 38.4333 51.92 38.2333 51.92 38C51.92 37.5333 51.77 37.1867 51.47 36.96C51.17 36.7333 50.73 36.62 50.15 36.62H48.68V39.34ZM48.68 36.02H50.13C50.3033 36.02 50.4733 36 50.64 35.96C50.8133 35.9133 50.9667 35.84 51.1 35.74C51.24 35.64 51.3533 35.5133 51.44 35.36C51.5267 35.2 51.57 35.0067 51.57 34.78C51.57 34.7067 51.5533 34.6033 51.52 34.47C51.4933 34.3367 51.4267 34.2033 51.32 34.07C51.22 33.9367 51.07 33.8233 50.87 33.73C50.67 33.63 50.4 33.58 50.06 33.58H48.68V36.02ZM47.96 32.92H50.07C50.3633 32.92 50.6467 32.95 50.92 33.01C51.1933 33.07 51.4367 33.17 51.65 33.31C51.8633 33.45 52.0333 33.6333 52.16 33.86C52.2867 34.0867 52.35 34.3667 52.35 34.7C52.35 35.0867 52.24 35.42 52.02 35.7C51.8067 35.9733 51.5 36.1567 51.1 36.25V36.27C51.6 36.31 51.99 36.4867 52.27 36.8C52.5567 37.1067 52.7 37.52 52.7 38.04C52.7 38.1533 52.67 38.32 52.61 38.54C52.5567 38.76 52.44 38.98 52.26 39.2C52.08 39.4133 51.82 39.6 51.48 39.76C51.14 39.92 50.6867 40 50.12 40H47.96V32.92ZM57.6588 37.3C57.6588 36.8533 57.5255 36.4933 57.2588 36.22C56.9922 35.94 56.6188 35.8 56.1388 35.8C55.9255 35.8 55.7188 35.8433 55.5188 35.93C55.3188 36.01 55.1422 36.12 54.9888 36.26C54.8422 36.4 54.7222 36.56 54.6288 36.74C54.5422 36.92 54.4988 37.1067 54.4988 37.3H57.6588ZM54.4788 37.84C54.4988 38.0733 54.5555 38.2933 54.6488 38.5C54.7422 38.7067 54.8655 38.8867 55.0188 39.04C55.1722 39.1867 55.3488 39.3033 55.5488 39.39C55.7488 39.4767 55.9655 39.52 56.1988 39.52C56.5522 39.52 56.8555 39.44 57.1088 39.28C57.3688 39.1133 57.5655 38.9233 57.6988 38.71L58.2088 39.13C57.9288 39.4833 57.6188 39.7367 57.2788 39.89C56.9455 40.0433 56.5855 40.12 56.1988 40.12C55.8522 40.12 55.5288 40.06 55.2288 39.94C54.9355 39.8133 54.6822 39.64 54.4688 39.42C54.2555 39.2 54.0855 38.94 53.9588 38.64C53.8388 38.34 53.7788 38.0133 53.7788 37.66C53.7788 37.3067 53.8388 36.98 53.9588 36.68C54.0788 36.38 54.2455 36.12 54.4588 35.9C54.6722 35.68 54.9222 35.51 55.2088 35.39C55.4955 35.2633 55.8055 35.2 56.1388 35.2C56.4922 35.2 56.8088 35.2633 57.0888 35.39C57.3688 35.5167 57.6022 35.6867 57.7888 35.9C57.9822 36.1067 58.1288 36.3533 58.2288 36.64C58.3288 36.92 58.3788 37.22 58.3788 37.54V37.84H54.4788ZM61.9955 35.92H60.6455V38.68C60.6455 38.8533 60.6621 38.9967 60.6955 39.11C60.7288 39.2167 60.7755 39.3 60.8355 39.36C60.8955 39.42 60.9655 39.4633 61.0455 39.49C61.1321 39.51 61.2255 39.52 61.3255 39.52C61.4388 39.52 61.5555 39.5033 61.6755 39.47C61.7955 39.4367 61.9055 39.3933 62.0055 39.34L62.0355 39.95C61.7888 40.0633 61.4921 40.12 61.1455 40.12C61.0188 40.12 60.8855 40.1033 60.7455 40.07C60.6121 40.0367 60.4888 39.9733 60.3755 39.88C60.2621 39.7867 60.1688 39.66 60.0955 39.5C60.0221 39.34 59.9855 39.13 59.9855 38.87V35.92H58.9955V35.32H59.9855V34H60.6455V35.32H61.9955V35.92ZM65.5558 37.67C65.3891 37.67 65.1791 37.68 64.9258 37.7C64.6791 37.7133 64.4391 37.7533 64.2058 37.82C63.9791 37.88 63.7824 37.9767 63.6158 38.11C63.4558 38.2433 63.3758 38.4267 63.3758 38.66C63.3758 38.8133 63.4058 38.9467 63.4658 39.06C63.5324 39.1667 63.6191 39.2567 63.7258 39.33C63.8324 39.3967 63.9491 39.4467 64.0758 39.48C64.2091 39.5067 64.3424 39.52 64.4758 39.52C64.7158 39.52 64.9224 39.48 65.0958 39.4C65.2758 39.32 65.4258 39.2133 65.5458 39.08C65.6658 38.94 65.7524 38.78 65.8058 38.6C65.8658 38.4133 65.8958 38.2167 65.8958 38.01V37.67H65.5558ZM65.8958 37.13V37.01C65.8958 36.2033 65.4958 35.8 64.6958 35.8C64.1491 35.8 63.6724 35.9833 63.2658 36.35L62.8658 35.88C63.3058 35.4267 63.9658 35.2 64.8458 35.2C65.0724 35.2 65.2891 35.2333 65.4958 35.3C65.7091 35.3667 65.8924 35.47 66.0458 35.61C66.1991 35.7433 66.3224 35.9133 66.4158 36.12C66.5091 36.3267 66.5558 36.5733 66.5558 36.86V38.95C66.5558 39.13 66.5624 39.32 66.5758 39.52C66.5958 39.7133 66.6158 39.8733 66.6358 40H65.9958C65.9758 39.8867 65.9591 39.7633 65.9458 39.63C65.9391 39.4967 65.9358 39.3667 65.9358 39.24H65.9158C65.7224 39.5533 65.4924 39.78 65.2258 39.92C64.9658 40.0533 64.6458 40.12 64.2658 40.12C64.0591 40.12 63.8591 40.09 63.6658 40.03C63.4724 39.9767 63.2991 39.8933 63.1458 39.78C62.9991 39.66 62.8791 39.5167 62.7858 39.35C62.6991 39.1767 62.6558 38.9767 62.6558 38.75C62.6558 38.37 62.7524 38.0733 62.9458 37.86C63.1458 37.64 63.3924 37.4767 63.6858 37.37C63.9858 37.2633 64.3024 37.1967 64.6358 37.17C64.9758 37.1433 65.2858 37.13 65.5658 37.13H65.8958Z" fill="white"/>
</svg>
