<svg width="32" height="32" viewBox="0 0 32 32" fill="none" xmlns="http://www.w3.org/2000/svg">
<path fill-rule="evenodd" clip-rule="evenodd" d="M22.6667 10.6672H5.33335C4.59735 10.6672 4.00002 10.0712 4.00002 9.33385C4.00002 8.59651 4.59735 8.00051 5.33335 8.00051H22.776L20.6987 6.38718C20.1174 5.93518 20.012 5.09651 20.464 4.51651C20.916 3.93385 21.7547 3.82851 22.3347 4.28051L27.484 8.28051C27.8134 8.53518 28.0027 8.92851 28 9.34585C27.9974 9.76051 27.8 10.1512 27.4667 10.4005L22.1334 14.4005C21.8934 14.5805 21.612 14.6672 21.3347 14.6672C20.9294 14.6672 20.528 14.4832 20.2667 14.1338C19.8254 13.5445 19.944 12.7085 20.5334 12.2672L22.6667 10.6672ZM9.33336 19.9999H26.6667C27.4027 19.9999 28 20.5959 28 21.3333C28 22.0706 27.4027 22.6666 26.6667 22.6666H9.22403L11.3014 24.2799C11.8827 24.7319 11.988 25.5706 11.536 26.1506C11.2734 26.4893 10.88 26.6666 10.4827 26.6666C10.196 26.6666 9.90803 26.5759 9.66536 26.3866L4.51603 22.3866C4.18669 22.1319 3.99736 21.7386 4.00003 21.3213C4.00269 20.9066 4.20003 20.5159 4.53336 20.2666L9.86669 16.2666C10.4574 15.8253 11.292 15.9439 11.7334 16.5333C12.1747 17.1226 12.056 17.9586 11.4667 18.3999L9.33336 19.9999Z" fill="#FFECE3"/>
<mask id="mask0_22915_24589" style="mask-type:luminance" maskUnits="userSpaceOnUse" x="4" y="4" width="24" height="23">
<path fill-rule="evenodd" clip-rule="evenodd" d="M22.6667 10.6672H5.33335C4.59735 10.6672 4.00002 10.0712 4.00002 9.33385C4.00002 8.59651 4.59735 8.00051 5.33335 8.00051H22.776L20.6987 6.38718C20.1174 5.93518 20.012 5.09651 20.464 4.51651C20.916 3.93385 21.7547 3.82851 22.3347 4.28051L27.484 8.28051C27.8134 8.53518 28.0027 8.92851 28 9.34585C27.9974 9.76051 27.8 10.1512 27.4667 10.4005L22.1334 14.4005C21.8934 14.5805 21.612 14.6672 21.3347 14.6672C20.9294 14.6672 20.528 14.4832 20.2667 14.1338C19.8254 13.5445 19.944 12.7085 20.5334 12.2672L22.6667 10.6672ZM9.33336 19.9999H26.6667C27.4027 19.9999 28 20.5959 28 21.3333C28 22.0706 27.4027 22.6666 26.6667 22.6666H9.22403L11.3014 24.2799C11.8827 24.7319 11.988 25.5706 11.536 26.1506C11.2734 26.4893 10.88 26.6666 10.4827 26.6666C10.196 26.6666 9.90803 26.5759 9.66536 26.3866L4.51603 22.3866C4.18669 22.1319 3.99736 21.7386 4.00003 21.3213C4.00269 20.9066 4.20003 20.5159 4.53336 20.2666L9.86669 16.2666C10.4574 15.8253 11.292 15.9439 11.7334 16.5333C12.1747 17.1226 12.056 17.9586 11.4667 18.3999L9.33336 19.9999Z" fill="white"/>
</mask>
<g mask="url(#mask0_22915_24589)">
<rect width="32" height="32" fill="#FFECE3"/>
</g>
</svg>
