<svg width="32" height="32" viewBox="0 0 32 32" fill="none" xmlns="http://www.w3.org/2000/svg">
<path fill-rule="evenodd" clip-rule="evenodd" d="M6.97572 14.1868C7.44772 14.7522 8.28772 14.8295 8.85305 14.3575L14.6664 9.5135V25.3335C14.6664 26.0695 15.2637 26.6668 15.9997 26.6668C16.7357 26.6668 17.333 26.0695 17.333 25.3335V9.5135L23.1464 14.3575C23.713 14.8295 24.553 14.7522 25.0237 14.1868C25.4957 13.6215 25.4197 12.7802 24.8531 12.3095L16.8531 5.64283C16.7904 5.5895 16.7157 5.56416 16.6464 5.52416C16.5917 5.49216 16.5437 5.45483 16.4837 5.43083C16.3277 5.3695 16.165 5.3335 15.9997 5.3335C15.8344 5.3335 15.6717 5.3695 15.5157 5.43083C15.4557 5.45483 15.4077 5.49216 15.3531 5.52416C15.2837 5.56416 15.209 5.5895 15.1464 5.64283L7.14638 12.3095C6.58105 12.7802 6.50372 13.6215 6.97572 14.1868Z" fill="#FFECE3"/>
<mask id="mask0_22915_24565" style="mask-type:luminance" maskUnits="userSpaceOnUse" x="6" y="5" width="20" height="22">
<path fill-rule="evenodd" clip-rule="evenodd" d="M6.97572 14.1868C7.44772 14.7522 8.28772 14.8295 8.85305 14.3575L14.6664 9.5135V25.3335C14.6664 26.0695 15.2637 26.6668 15.9997 26.6668C16.7357 26.6668 17.333 26.0695 17.333 25.3335V9.5135L23.1464 14.3575C23.713 14.8295 24.553 14.7522 25.0237 14.1868C25.4957 13.6215 25.4197 12.7802 24.8531 12.3095L16.8531 5.64283C16.7904 5.5895 16.7157 5.56416 16.6464 5.52416C16.5917 5.49216 16.5437 5.45483 16.4837 5.43083C16.3277 5.3695 16.165 5.3335 15.9997 5.3335C15.8344 5.3335 15.6717 5.3695 15.5157 5.43083C15.4557 5.45483 15.4077 5.49216 15.3531 5.52416C15.2837 5.56416 15.209 5.5895 15.1464 5.64283L7.14638 12.3095C6.58105 12.7802 6.50372 13.6215 6.97572 14.1868Z" fill="white"/>
</mask>
<g mask="url(#mask0_22915_24565)">
<rect width="32" height="32" fill="#FFECE3"/>
</g>
</svg>
