<svg width="32" height="32" viewBox="0 0 32 32" fill="none" xmlns="http://www.w3.org/2000/svg">
<g clip-path="url(#clip0_22915_24555)">
<path d="M29.3332 8H19.9998C17.8781 8 15.8433 8.84285 14.343 10.3431C12.8427 11.8434 11.9998 13.8783 11.9998 16C11.9998 18.1217 12.8427 20.1566 14.343 21.6569C15.8433 23.1571 17.8781 24 19.9998 24H29.3332V26.6667C29.3332 27.0203 29.1927 27.3594 28.9426 27.6095C28.6926 27.8595 28.3535 28 27.9998 28H3.99984C3.64622 28 3.30708 27.8595 3.05703 27.6095C2.80698 27.3594 2.6665 27.0203 2.6665 26.6667V5.33333C2.6665 4.97971 2.80698 4.64057 3.05703 4.39052C3.30708 4.14048 3.64622 4 3.99984 4H27.9998C28.3535 4 28.6926 4.14048 28.9426 4.39052C29.1927 4.64057 29.3332 4.97971 29.3332 5.33333V8ZM19.9998 10.6667H30.6665V21.3333H19.9998C18.5854 21.3333 17.2288 20.7714 16.2286 19.7712C15.2284 18.771 14.6665 17.4145 14.6665 16C14.6665 14.5855 15.2284 13.229 16.2286 12.2288C17.2288 11.2286 18.5854 10.6667 19.9998 10.6667ZM19.9998 14.6667V17.3333H23.9998V14.6667H19.9998Z" fill="white"/>
</g>
<defs>
<clipPath id="clip0_22915_24555">
<rect width="32" height="32" fill="white"/>
</clipPath>
</defs>
</svg>
